<svg height="512" viewBox="0 0 24 24" width="512" xmlns="http://www.w3.org/2000/svg" xmlns:xlink="http://www.w3.org/1999/xlink"><linearGradient id="linear-gradient" gradientUnits="userSpaceOnUse" x1="1" x2="23" y1="12" y2="12"><stop offset="0" stop-color="#ea5a6b"/><stop offset="1" stop-color="#5a4ef6"/></linearGradient><g id="Layer_2" data-name="Layer 2"><path d="m12 12.3271a5.0043 5.0043 0 0 1 -1.9238-.3823l-7.6924-3.2059a2.2485 2.2485 0 0 1 0-4.1512l7.6924-3.2054a5.0319 5.0319 0 0 1 3.8476 0l7.6924 3.2059a2.2485 2.2485 0 0 1 0 4.1512l-7.6924 3.2054a5.0043 5.0043 0 0 1 -1.9238.3823zm-1.1543-2.2279a2.9852 2.9852 0 0 0 2.3086 0l7.6924-3.2059a.2484.2484 0 0 0 0-.459l-7.6924-3.2064a2.9861 2.9861 0 0 0 -2.3086 0l-7.6924 3.2059a.2484.2484 0 0 0 0 .459zm3.0781 7.5133 7.6924-3.2054a2.2489 2.2489 0 0 0 0-4.1517 1 1 0 1 0 -.77 1.8457.2491.2491 0 0 1 0 .46l-7.6924 3.2054a2.9808 2.9808 0 0 1 -2.3086 0l-7.6919-3.206a.2487.2487 0 0 1 0-.4594 1 1 0 0 0 -.77-1.8457 2.2485 2.2485 0 0 0 0 4.1512l7.6924 3.2064a4.97 4.97 0 0 0 3.8476 0zm0 5 7.6924-3.2054a2.2489 2.2489 0 0 0 0-4.1517 1 1 0 1 0 -.77 1.8456.2492.2492 0 0 1 0 .46l-7.6924 3.2054a2.9812 2.9812 0 0 1 -2.3086 0l-7.6919-3.2064a.2488.2488 0 0 1 0-.46 1 1 0 1 0 -.77-1.8456 2.2485 2.2485 0 0 0 0 4.1512l7.6924 3.2064a4.97 4.97 0 0 0 3.8476 0z" fill="url(#linear-gradient)"/></g></svg>